<?xml version="1.0" standalone="no"?>
<svg xmlns="http://www.w3.org/2000/svg" viewBox="0 0 182.952 36" width="182.952" height="36"><g fill="#9e27e8" color="#9e27e8" transform="translate(0 3.9999999999999982) scale(0.2800001)"><svg width="100.0" height="100.0" x="0.0" y="0.0" viewBox="0 0 100 100"><path d="M49.952,0C22.365,0,0,22.365,0,49.952C0,77.54,22.365,99.905,49.952,99.905c27.588,0,49.953-22.365,49.953-49.953  C99.905,22.365,77.54,0,49.952,0z M56.475,77.75v0.758c-0.167,3.054-0.591,4.409-1.86,5.597c-1.271,1.184-2.883,1.868-4.662,1.868  c-4.068,0-6.44-2.885-6.44-7.8V78v-0.25c-3.729-1.188-5.762-2.035-7.881-3.478c-4.236-2.711-6.356-5.847-6.356-9.404  c0-3.731,2.542-6.528,6.019-6.528c2.033,0,3.812,0.849,6.185,2.712c5.168,4.325,6.271,4.916,9.32,4.916  c3.816,0,6.698-2.71,6.698-6.186c0-3.56-2.544-5.677-8.985-7.205l-6.948-1.692c-6.865-1.695-11.101-6.951-11.101-13.731  c0-4.999,2.119-9.659,5.763-12.457c1.864-1.441,3.643-2.374,6.863-3.644c0.084-1.78,0.338-2.711,0.762-3.729  c1.102-2.035,3.392-3.39,5.764-3.39c3.644,0,6.102,2.543,6.441,6.693l1.441,0.51c3.811,1.186,5.508,2.118,7.372,3.729  c2.204,2.033,3.219,3.982,3.219,6.186c0,3.389-2.628,6.186-5.677,6.186c-1.186,0-2.541-0.425-3.645-1.271  c-0.338-0.254-1.355-1.017-2.882-2.288c-2.204-1.695-3.98-2.373-6.27-2.373c-3.56,0-6.187,2.119-6.187,5.17  c0,1.865,1.017,3.133,3.136,4.068c0.848,0.423,1.948,0.679,5.763,1.609c12.881,2.881,18.307,8.221,18.307,17.879  C70.633,68.598,64.783,75.968,56.475,77.75z"></path></svg></g><path fill="#9e27e8" fill-rule="nonzero" d="M0 16.80L0 0.29L14.28 0.29L14.28 4.25L5.30 4.25L5.30 6.53L12.98 6.53L12.98 10.32L5.30 10.32L5.30 12.84L14.45 12.84L14.45 16.80L0 16.80ZM28.32 8.09L34.22 16.80L27.79 16.80L24.74 11.66L24.65 11.66L21.60 16.80L15.65 16.80L21.55 8.06L16.22 0.29L22.63 0.29L25.13 4.51L25.22 4.51L27.74 0.29L33.67 0.29L28.32 8.09ZM43.06 0Q46.73 0 48.86 1.84Q51 3.67 51 7.08L51 7.08L45.94 7.08Q45.94 5.64 45.18 4.80Q44.42 3.96 43.03 3.96L43.03 3.96Q41.42 3.96 40.67 4.97Q39.91 5.98 39.91 7.78L39.91 7.78L39.91 9.31Q39.91 11.09 40.67 12.11Q41.42 13.13 42.98 13.13L42.98 13.13Q44.52 13.13 45.31 12.34Q46.10 11.54 46.10 10.10L46.10 10.10L51 10.10Q51 13.49 48.92 15.29Q46.85 17.09 43.06 17.09L43.06 17.09Q38.83 17.09 36.66 14.93Q34.49 12.77 34.49 8.54L34.49 8.54Q34.49 4.32 36.66 2.16Q38.83 0 43.06 0L43.06 0ZM70.30 16.80L64.99 16.80L64.99 10.54L59.16 10.54L59.16 16.80L53.86 16.80L53.86 0.29L59.16 0.29L59.16 6.31L64.99 6.31L64.99 0.29L70.30 0.29L70.30 16.80ZM90.53 16.80L84.91 16.80L84.22 14.47L78.43 14.47L77.74 16.80L72.31 16.80L78.34 0.29L84.50 0.29L90.53 16.80ZM81.29 4.90L79.54 10.78L83.11 10.78L81.38 4.90L81.29 4.90ZM108.96 16.80L104.33 16.80L97.39 8.78L97.39 16.80L92.52 16.80L92.52 0.29L97.15 0.29L104.09 8.42L104.09 0.29L108.96 0.29L108.96 16.80ZM120.82 0Q123.19 0 125.09 0.72Q126.98 1.44 128.10 2.84Q129.22 4.25 129.22 6.26L129.22 6.26L124.15 6.26Q124.15 5.23 123.24 4.60Q122.33 3.96 121.03 3.96L121.03 3.96Q119.16 3.96 118.20 4.96Q117.24 5.95 117.24 7.78L117.24 7.78L117.24 9.31Q117.24 11.14 118.20 12.13Q119.16 13.13 121.03 13.13L121.03 13.13Q122.33 13.13 123.24 12.52Q124.15 11.90 124.15 10.94L124.15 10.94L120.41 10.94L120.41 7.58L129.22 7.58L129.22 16.80L126.48 16.80L125.95 15.17Q123.70 17.09 120.05 17.09L120.05 17.09Q115.94 17.09 113.88 14.94Q111.82 12.79 111.82 8.54L111.82 8.54Q111.82 4.34 114.16 2.17Q116.50 0 120.82 0L120.82 0ZM132.50 16.80L132.50 0.29L146.78 0.29L146.78 4.25L137.81 4.25L137.81 6.53L145.49 6.53L145.49 10.32L137.81 10.32L137.81 12.84L146.95 12.84L146.95 16.80L132.50 16.80Z" transform="translate(36, 9.6)"></path></svg>